PathFileType	4	(X/Y/Z)	39_1_17_p1_0-183_filt_butterworth.trc
DataRate	CameraRate	NumFrames	NumMarkers	Units	OrigDataRate	OrigDataStartFrame	OrigNumFrames
38.0	38.0	5	27	m	38.0	0	183
Frame#	Time	RHip			RKnee			RAnkle			RBigToe			RSmallToe			RHeel			LHip			LKnee			LAnkle			LBigToe			LSmallToe			LHeel			Neck			Head			Nose			RShoulder			RElbow			RWrist			RThumb			RIndex			RPinky			LShoulder			LElbow			LWrist			LThumb			LIndex			LPinky			
		X1	Y1	Z1	X2	Y2	Z2	X3	Y3	Z3	X4	Y4	Z4	X5	Y5	Z5	X6	Y6	Z6	X7	Y7	Z7	X8	Y8	Z8	X9	Y9	Z9	X10	Y10	Z10	X11	Y11	Z11	X12	Y12	Z12	X13	Y13	Z13	X14	Y14	Z14	X15	Y15	Z15	X16	Y16	Z16	X17	Y17	Z17	X18	Y18	Z18	X19	Y19	Z19	X20	Y20	Z20	X21	Y21	Z21	X22	Y22	Z22	X23	Y23	Z23	X24	Y24	Z24	X25	Y25	Z25	X26	Y26	Z26	X27	Y27	Z27	
0	0.0	0.28740936507351966	0.659604007800403	0.4838489411391681	0.2651264362066763	0.7559253630606327	0.9257738084171266	0.22522693516183803	0.8097406677472345	1.309830155444566	0.2076633291352838	0.6385785118428989	1.3352349114306792	0.2732205254636131	0.6727545231600698	1.3506984601129342	0.20103809318724497	0.9348638865445499	1.383646898953265	0.0756127137025191	0.6782537886830516	0.4815951298341129	0.04656981576841116	0.7357046390047668	0.8773590813700621	0.027798405399255315	0.8162485826443251	1.2849810690203336	0.05862876888968674	0.6411640859901157	1.3248753382659584	0.0007169671778144442	0.6944249531646202	1.336300940616675	0.03667031487995759	0.8656966680160126	1.3482663912851385	0.23901357424102	0.6134790088880193	-0.06287045571174327	0.26114685516860303	0.5222930801971717	-0.291484771727745	0.25251516994785245	0.4722799192728131	-0.165035683148054	0.3931843839975728	0.6248307207492175	0.03761131627822492	0.37992374194197354	0.5975463991867523	0.2936439997913135	0.2577217629457357	0.4600367238647153	0.4902959970269592	0.17662270556813456	0.5033343559195738	0.5997696282687495	0.1757056539201799	0.5034243964457492	0.6046000782387204	0.18180745575262242	0.48920209056458985	0.6012642141793529	0.07899180267289654	0.6545727534399683	0.015462200282716838	0.04868946843045628	0.5886684113764027	0.2759053335475756	0.13976978831089654	0.42224061299028715	0.4843712673787941	0.19401995953296902	0.47781236551840556	0.5752615804038655	0.1863911806232024	0.48979587509611977	0.5979708086079394	0.15842240770845892	0.422292749955003	0.587407649509897
1	0.0263157894736842	0.2871813099572632	0.6600429623151762	0.4839751805620232	0.2604211848770103	0.7431023795268019	0.9260909149653807	0.22755901821772934	0.822293947902745	1.315355669065176	0.20738807789516533	0.6374117817142712	1.3349108429079197	0.27318315861407205	0.6709500933080847	1.3499544058737518	0.2039356337576682	0.9481711887775379	1.3896857179853728	0.07570502274651547	0.6796947408902672	0.4859791544778502	0.048776954287744125	0.749482121351565	0.8857651981764119	0.027426501966449197	0.8227041308365538	1.293168435243941	0.0636302638151982	0.6262421853215501	1.3135242402204073	0.0006662837577453495	0.6943627950690733	1.3361465408780342	0.03700229693071279	0.8669985381791943	1.351056187608482	0.23909130702443165	0.6134384922887957	-0.06282877138428021	0.2611169465942894	0.5223965803419535	-0.2914440484205253	0.2524576946598457	0.47270017161078526	-0.1650180689919897	0.3933042323268582	0.6255880374418464	0.04343594262198504	0.379993600149814	0.5974472984364378	0.29364149423821223	0.25763851943407723	0.4597914096090841	0.4902587684277355	0.1767692194746119	0.5032429385138608	0.599500478149747	0.17599437219493816	0.5040619878726983	0.6060323620187436	0.1828293517272392	0.49453586724205556	0.6026170034162226	0.0779409730144225	0.6431386140946477	0.012366483285470818	0.044593106129856376	0.5876807972394412	0.2776069629805056	0.13404398145585988	0.4318767650169142	0.4878905550922804	0.19889165310664708	0.48846892070096265	0.5750138559576772	0.19335917264410876	0.48081899174510534	0.5962979567543143	0.15786134628650075	0.42368939488652846	0.5880279033767845
2	0.0526315789473684	0.287125246704385	0.6600418029530584	0.4840143361145551	0.2605771009956368	0.7395242574825532	0.9284337963414957	0.22833055097258767	0.8266294454413032	1.3173112181572193	0.20726672611709862	0.636809917304841	1.3346874415575354	0.27285474928213893	0.6702727337538895	1.3497166338226692	0.20366191654128366	0.952227071058346	1.3916499979452992	0.07579701619388428	0.6800298160998243	0.48736811409200825	0.04951605940068193	0.7540717443246848	0.8881248211838516	0.027895318165403287	0.8303125562987954	1.294618327979546	0.06399071738302342	0.6254352299098737	1.308055790988725	0.0006608184283977405	0.6941552264492485	1.3359334302817338	0.036933230634082985	0.8665259859395535	1.3501354809401183	0.2391217527543386	0.6134421074603584	-0.06281637641891527	0.2611239847279173	0.5224111616016609	-0.2914531347005521	0.25244117019043294	0.47276967243223667	-0.16501984645234813	0.39338903832983796	0.6259324985063937	0.045576675536343265	0.38002645902412846	0.5972695697506865	0.2936297398597599	0.2576470209935549	0.4596021353714421	0.4900142208205617	0.1767545521414215	0.502317325737792	0.5992949141419674	0.17597971152126762	0.5040701286358966	0.60616076898837	0.18315095434455464	0.49631456246124483	0.6028099360132478	0.07758780346685155	0.6393055203042163	0.012455372052146953	0.04344784371065944	0.5871279974894865	0.27685088687014725	0.13214808065057107	0.43485426384366843	0.4877948487312399	0.20183795794192022	0.49202759616056213	0.5748836752146047	0.1957703559604165	0.477505100749897	0.5955153053319808	0.15768622262345106	0.42388405123486483	0.5881261556208113
3	0.0789473684210526	0.2885203380191466	0.6557834880741575	0.48328627410890423	0.2622951769041798	0.7411732896519765	0.9299417957053231	0.22813560728204912	0.8256798408862775	1.316919064154257	0.20722545648261434	0.6367759143205488	1.3345934915096151	0.2729811080032354	0.670514349022187	1.3498594701083066	0.2025064950647255	0.9507827357674894	1.3910983016008487	0.07579565598144361	0.6797853500180695	0.48695593616604865	0.04937217521351418	0.7530551848215348	0.8874030991224551	0.02884410421362016	0.8341275612440656	1.291450988806859	0.06102872637635809	0.6338706673633934	1.3094976682409558	0.0006185832872522486	0.6938557631882003	1.33599284989348	0.03679699134382368	0.8656664269893792	1.3483990281973377	0.2391231725070103	0.6134768917847976	-0.06282061369298143	0.2611526423480715	0.522376799519797	-0.2914884211372061	0.2524550133877103	0.4726573770507684	-0.16503789745951125	0.39342715576094517	0.6259036833153003	0.04515736975886846	0.3797683830730054	0.5966667201069257	0.2937954035531598	0.2576660196715915	0.459634455603033	0.48984981734575705	0.17707830736677976	0.5017423167183026	0.5990596471651221	0.17593020165463708	0.5038779282868336	0.6064306400515878	0.18363583831950284	0.4985310207930026	0.6030391524606904	0.07767366736493406	0.6406596246870767	0.014614734272803482	0.043908217297219415	0.5870994548485333	0.27557744100220244	0.13222818447767512	0.43441394188966553	0.48669079872102006	0.2042352078542478	0.4911075876181371	0.5726814370064893	0.19573585152292133	0.4779296685024014	0.595325740035333	0.15772657128958395	0.42342591983772815	0.5879624724493113
4	0.1052631578947368	0.2910222799554191	0.6482135624077118	0.4819297731635472	0.26209700451222095	0.7442282396801515	0.9293711904309054	0.22802845873196387	0.825005242874916	1.3165880353558825	0.20710357226905002	0.6368787092953007	1.3346336859762238	0.27375505719805426	0.6706512827205899	1.349928611152503	0.20329199889281327	0.9501019855737118	1.3906622927902423	0.07569489442023651	0.6796193184464606	0.4867238871847484	0.049438488268431544	0.7530170953076983	0.8898895274225984	0.02962268827546605	0.8333737146168636	1.2884539477511416	0.05914945909186203	0.638806825679178	1.3135831968967027	0.0006135422452808001	0.6936726923577731	1.3360448903174782	0.036846861650188634	0.8656013447288446	1.3482783207210685	0.23912549301681565	0.6134931335687722	-0.0628188774662486	0.2611708109697957	0.5223811488088992	-0.2915133415943014	0.25247024635766646	0.47264460831919575	-0.16506131409078045	0.3934081265924536	0.625503266668623	0.04389974187176851	0.37938026169985695	0.5960697113800483	0.2938530948044829	0.257564418102524	0.4598294513939063	0.49090724967606447	0.17835909050256324	0.5053315319691256	0.5988823087222557	0.1765943841978299	0.5033899754419648	0.6071464315802666	0.18355520666223496	0.4981906350053269	0.6030827138531588	0.07772797593245051	0.6419677457619251	0.015892971508726407	0.04399728832918927	0.5872363028785716	0.275438675575462	0.13145707877481647	0.43371228566384423	0.48652416811709753	0.2049543539752877	0.49066434815534304	0.5694870964337854	0.19584155661132363	0.4783509649527129	0.5951894597421212	0.15785274471124444	0.4233281914278426	0.5879169423098158
